<?xml version="1.0" encoding="UTF-8" standalone="no"?>
<!-- Created with Inkscape (http://www.inkscape.org/) -->

<svg
   version="1.1"
   id="svg132"
   width="360"
   height="273.49564"
   viewBox="0 0 360 273.49564"
   xmlns="http://www.w3.org/2000/svg"
   xmlns:svg="http://www.w3.org/2000/svg">
  <defs
     id="defs136" />
  <g
     id="g138"
     transform="translate(-1.2919678,-9.1682632)">
    <path
       id="path310"
       style="display:inline;fill:#009944;fill-opacity:1;stroke-width:0.223038"
       d="M 84.000952 9.179982 C 83.261683 9.2001217 82.567585 9.2462768 82.028296 9.3167007 C 81.034667 9.446455 79.220475 9.81778 77.997046 10.140919 C 76.773587 10.464057 74.962204 11.036352 73.971655 11.414357 C 72.981116 11.792361 71.270926 12.553461 70.172827 13.105763 C 69.074688 13.658069 67.363722 14.644944 66.370093 15.299123 C 65.376464 15.953301 63.750451 17.172533 62.756812 18.006154 C 61.763183 18.839774 60.041579 20.457916 58.93064 21.60381 C 57.819711 22.749699 56.274565 24.456395 55.497046 25.394826 C 54.719537 26.333256 53.444501 27.96656 52.663062 29.025685 C 51.881622 30.084806 50.437496 32.162714 49.454077 33.642873 C 48.470648 35.123027 46.92137 37.586364 46.012671 39.117482 C 45.103952 40.6486 43.448772 43.58392 42.332983 45.640919 C 41.217225 47.697917 38.969098 52.109883 37.33689 55.443654 C 35.704701 58.777418 33.630747 63.068406 32.729468 64.97881 C 31.828189 66.88921 30.146315 70.57378 28.991187 73.168263 C 27.836088 75.762747 26.137345 79.783381 25.215796 82.101857 C 24.294267 84.420332 22.264026 90.06503 20.704077 94.646779 C 19.144169 99.228525 17.158877 105.32707 16.291968 108.19756 C 15.425079 111.06806 14.263256 115.08673 13.709937 117.1292 C 13.156607 119.17167 12.292597 122.47512 11.791968 124.46904 C 11.291338 126.46298 10.46593 129.94096 9.9560303 132.19756 C 9.4461208 134.45417 8.6706136 138.06032 8.2333741 140.21319 C 7.7961345 142.36606 7.0867717 146.06998 6.6572022 148.44365 C 6.2276126 150.81733 5.5557843 154.83796 5.1650147 157.37725 C 4.7742651 159.91654 4.1859406 164.16115 3.8564209 166.81084 C 3.5268913 169.46053 3.0742013 173.48115 2.8505616 175.74444 C 2.6269418 178.00769 2.307887 181.71163 2.1415772 183.9749 C 1.9752973 186.23818 1.7488039 189.94017 1.6396241 192.20342 C 1.5304442 194.46671 1.3916771 199.47994 1.3290772 203.34404 C 1.2665572 207.20818 1.2863991 211.14554 1.3739991 212.09209 L 1.5341553 213.81279 L 106.0283 29.338185 C 106.09176 28.602549 106.06991 25.825132 105.97751 24.756154 C 105.88514 23.687175 105.62198 22.196332 105.39158 21.443654 C 105.16116 20.690973 104.64754 19.443042 104.25095 18.670216 C 103.74564 17.685469 103.0156 16.75015 101.8115 15.547169 C 100.28742 14.024515 99.798172 13.682366 97.483374 12.51006 C 96.048125 11.783194 94.198112 10.94537 93.370093 10.648732 C 92.542064 10.352093 91.142004 9.9333361 90.258765 9.7170913 C 89.375536 9.5008472 87.567988 9.2680583 86.24314 9.2014663 C 85.52409 9.1653234 84.740211 9.159842 84.000952 9.179982 z M 278.58298 9.179982 C 277.84372 9.159842 277.05985 9.1653234 276.3408 9.2014663 C 275.01595 9.2680583 273.2084 9.5008472 272.32517 9.7170913 C 271.44193 9.9333361 270.04187 10.352093 269.21384 10.648732 C 268.38582 10.94537 266.53581 11.783194 265.10056 12.51006 C 262.78576 13.682366 262.29652 14.024515 260.77244 15.547169 C 259.56834 16.75015 258.83829 17.685469 258.33298 18.670216 C 257.93639 19.443042 257.42278 20.690973 257.19236 21.443654 C 256.96196 22.196332 256.69879 23.687175 256.60642 24.756154 C 256.51402 25.825132 256.49218 28.602549 256.55564 29.338185 L 361.04978 213.81279 L 361.20994 212.09209 C 361.29754 211.14554 361.31738 207.20818 361.25486 203.34404 C 361.19226 199.47994 361.05349 194.46671 360.94431 192.20342 C 360.83513 189.94017 360.60864 186.23818 360.44236 183.9749 C 360.27605 181.71163 359.95699 178.00769 359.73337 175.74444 C 359.50973 173.48115 359.05704 169.46053 358.72751 166.81084 C 358.398 164.16115 357.80967 159.91654 357.41892 157.37725 C 357.02815 154.83796 356.35632 150.81733 355.92673 148.44365 C 355.49716 146.06998 354.7878 142.36606 354.35056 140.21319 C 353.91332 138.06032 353.13781 134.45417 352.62791 132.19756 C 352.11801 129.94096 351.2926 126.46298 350.79197 124.46904 C 350.29134 122.47512 349.42733 119.17167 348.874 117.1292 C 348.32068 115.08673 347.15886 111.06806 346.29197 108.19756 C 345.42506 105.32707 343.43977 99.228525 341.87986 94.646779 C 340.31991 90.06503 338.28967 84.420332 337.36814 82.101857 C 336.44659 79.783381 334.74785 75.762747 333.59275 73.168263 C 332.43762 70.57378 330.75575 66.88921 329.85447 64.97881 C 328.95319 63.068406 326.87923 58.777418 325.24705 55.443654 C 323.61484 52.109883 321.36671 47.697917 320.25095 45.640919 C 319.13516 43.58392 317.47998 40.6486 316.57126 39.117482 C 315.66257 37.586364 314.11329 35.123027 313.12986 33.642873 C 312.14644 32.162714 310.70231 30.084806 309.92087 29.025685 C 309.13943 27.96656 307.8644 26.333256 307.08689 25.394826 C 306.30937 24.456395 304.76422 22.749699 303.6533 21.60381 C 302.54236 20.457916 300.82075 18.839774 299.82712 18.006154 C 298.83349 17.172533 297.20747 15.953301 296.21384 15.299123 C 295.22021 14.644944 293.50925 13.658069 292.41111 13.105763 C 291.31301 12.553461 289.60282 11.792361 288.61228 11.414357 C 287.62173 11.036352 285.81035 10.464057 284.58689 10.140919 C 283.36346 9.81778 281.54927 9.446455 280.55564 9.3167007 C 280.01635 9.2462768 279.32225 9.2001217 278.58298 9.179982 z M 120.98337 28.709279 C 120.1158 28.752234 118.77776 28.930926 118.01072 29.107716 C 117.24369 29.284521 115.82055 29.801672 114.84861 30.256154 C 113.87666 30.710648 111.4598 32.081416 110.85447 32.504201 L 3.3427491 215.23662 L 4.9130616 214.51397 C 5.7766207 214.11657 9.1955811 212.16622 12.510718 210.17998 C 15.825864 208.19375 20.097437 205.56634 22.002905 204.34014 C 23.908333 203.11397 27.00295 201.06695 28.879858 199.79131 C 30.756777 198.51564 33.805038 196.38612 35.653296 195.06084 C 37.501494 193.73551 40.75577 191.33511 42.885718 189.7249 C 45.015626 188.11469 48.397635 185.48138 50.401343 183.87334 C 52.405011 182.26527 55.550699 179.67441 57.391577 178.11553 C 59.232465 176.55667 62.085603 174.09016 63.731421 172.63506 C 65.377219 171.17995 68.114124 168.70495 69.813452 167.13506 C 71.51277 165.56517 74.110411 163.11051 75.58689 161.67998 C 77.063378 160.24946 79.493169 157.85033 80.985327 156.3499 C 82.477506 154.84948 85.378152 151.83473 87.43064 149.64873 C 89.483108 147.46272 93.770047 142.69287 96.957983 139.05108 C 100.14594 135.40927 104.0203 130.82872 105.56736 128.87139 C 107.11446 126.91407 109.74568 123.43266 111.41501 121.13506 C 113.08434 118.83745 115.43581 115.53877 116.63962 113.80303 C 117.84345 112.06731 120.5217 108.12561 122.59275 105.04522 C 123.75175 103.32133 124.76355 101.71047 125.94626 99.881154 C 126.05436 102.74119 126.25294 106.84353 126.49509 110.38311 C 126.77662 114.4978 127.16428 119.77653 127.35837 122.11553 C 127.55244 124.45452 127.98163 128.93624 128.3115 132.07451 C 128.64136 135.21279 129.24029 140.02495 129.64158 142.76787 C 130.04285 145.5108 131.22415 152.07058 132.26853 157.346 C 133.31293 162.62141 134.79119 169.59248 135.55173 172.83623 C 136.31229 176.07997 137.42604 180.59276 138.0283 182.86553 C 138.63056 185.1383 139.63666 188.79569 140.26267 190.99248 C 140.88868 193.18928 142.02505 196.99482 142.78806 199.44951 C 143.55109 201.90421 144.80964 205.80687 145.58494 208.12139 C 146.36025 210.43591 147.73426 214.39358 148.63962 216.91631 C 149.54497 219.43905 151.13228 223.67963 152.16697 226.34014 C 153.20167 229.00065 154.99442 233.41404 156.14939 236.14678 C 157.30437 238.87951 159.10136 242.99898 160.14353 245.30108 C 161.18574 247.60313 162.93681 251.34333 164.03416 253.61358 C 165.13152 255.88379 166.97169 259.57237 168.124 261.81084 C 169.27632 264.04935 171.92614 268.95237 174.01267 272.70537 C 176.09922 276.4584 178.30678 280.23387 178.91697 281.096 L 180.02634 282.66436 L 178.0908 47.099904 C 177.74319 46.356777 176.17784 43.696348 175.49509 42.719044 C 174.81231 41.741738 173.73066 40.453981 173.0908 39.857716 C 172.45091 39.261462 171.26309 38.345884 170.45212 37.82256 C 169.41881 37.155712 168.199 36.662747 166.37205 36.174123 C 164.05957 35.555655 163.39722 35.496641 160.51853 35.654591 C 158.73364 35.752523 156.48792 35.974158 155.52634 36.148732 C 154.56478 36.323307 152.98465 36.698162 152.01462 36.980763 C 151.04463 37.263365 149.17607 38.045144 147.86423 38.717091 C 146.44024 39.446487 144.83165 40.433521 143.87205 41.168263 C 142.99815 41.837369 141.48961 43.178715 140.49119 44.16631 C 140.38836 43.886236 140.28171 43.487933 140.19431 43.277638 C 139.777 42.273139 138.96816 40.779909 138.1865 39.570607 C 137.46638 38.456551 136.36225 37.006674 135.73337 36.349904 C 135.10447 35.693128 134.04098 34.692108 133.37009 34.123341 C 132.69918 33.554564 131.04728 32.368107 129.70017 31.488576 C 127.52752 30.070053 126.98594 29.818625 124.90525 29.26006 C 123.26138 28.818773 122.08885 28.654519 120.98337 28.709279 z M 241.60056 28.709279 C 240.49508 28.654519 239.32255 28.818773 237.67869 29.26006 C 235.598 29.818625 235.05641 30.070053 232.88376 31.488576 C 231.53666 32.368107 229.88475 33.554564 229.21384 34.123341 C 228.54295 34.692108 227.47946 35.693128 226.85056 36.349904 C 226.22168 37.006674 225.11756 38.456551 224.39744 39.570607 C 223.61578 40.779909 222.80693 42.273139 222.38962 43.277638 C 222.30222 43.487933 222.19558 43.886236 222.09275 44.16631 C 221.09433 43.178715 219.58579 41.837369 218.71189 41.168263 C 217.75228 40.433521 216.14369 39.446487 214.7197 38.717091 C 213.40786 38.045144 211.53931 37.263365 210.56931 36.980763 C 209.59928 36.698162 208.01915 36.323307 207.05759 36.148732 C 206.09601 35.974158 203.85029 35.752523 202.06541 35.654591 C 199.18672 35.496641 198.52437 35.555655 196.21189 36.174123 C 194.38493 36.662747 193.16513 37.155712 192.13181 37.82256 C 191.32084 38.345884 190.13303 39.261462 189.49314 39.857716 C 188.85328 40.453981 187.77162 41.741738 187.08884 42.719044 C 186.40609 43.696348 184.84075 46.356777 184.49314 47.099904 L 182.55759 282.66436 L 183.66697 281.096 C 184.27716 280.23387 186.48472 276.4584 188.57126 272.70537 C 190.65779 268.95237 193.30762 264.04935 194.45994 261.81084 C 195.61225 259.57237 197.45241 255.88379 198.54978 253.61358 C 199.64713 251.34333 201.3982 247.60313 202.44041 245.30108 C 203.48257 242.99898 205.27957 238.87951 206.43455 236.14678 C 207.58951 233.41404 209.38227 229.00065 210.41697 226.34014 C 211.45166 223.67963 213.03896 219.43905 213.94431 216.91631 C 214.84967 214.39358 216.22369 210.43591 216.999 208.12139 C 217.7743 205.80687 219.03284 201.90421 219.79587 199.44951 C 220.55888 196.99482 221.69526 193.18928 222.32126 190.99248 C 222.94727 188.79569 223.95338 185.1383 224.55564 182.86553 C 225.1579 180.59276 226.27164 176.07997 227.0322 172.83623 C 227.79274 169.59248 229.27101 162.62141 230.31541 157.346 C 231.35978 152.07058 232.54109 145.5108 232.94236 142.76787 C 233.34365 140.02495 233.94258 135.21279 234.27244 132.07451 C 234.60231 128.93624 235.03149 124.45452 235.22556 122.11553 C 235.41965 119.77653 235.80731 114.4978 236.08884 110.38311 C 236.33099 106.84353 236.52957 102.74119 236.63767 99.881154 C 237.82039 101.71047 238.83219 103.32133 239.99119 105.04522 C 242.06223 108.12561 244.74048 112.06731 245.94431 113.80303 C 247.14813 115.53877 249.49959 118.83745 251.16892 121.13506 C 252.83826 123.43266 255.46948 126.91407 257.01658 128.87139 C 258.56364 130.82872 262.438 135.40927 265.62595 139.05108 C 268.81389 142.69287 273.10083 147.46272 275.1533 149.64873 C 277.20578 151.83473 280.10643 154.84948 281.59861 156.3499 C 283.09077 157.85033 285.52056 160.24946 286.99705 161.67998 C 288.47352 163.11051 291.07117 165.56517 292.77048 167.13506 C 294.46981 168.70495 297.20672 171.17995 298.85251 172.63506 C 300.49833 174.09016 303.35147 176.55667 305.19236 178.11553 C 307.03324 179.67441 310.17892 182.26527 312.18259 183.87334 C 314.1863 185.48138 317.56831 188.11469 319.69822 189.7249 C 321.82817 191.33511 325.08244 193.73551 326.93064 195.06084 C 328.7789 196.38612 331.82716 198.51564 333.70408 199.79131 C 335.58099 201.06695 338.6756 203.11397 340.58103 204.34014 C 342.4865 205.56634 346.75807 208.19375 350.07322 210.17998 C 353.38835 212.16622 356.80731 214.11657 357.67087 214.51397 L 359.24119 215.23662 L 251.72947 32.504201 C 251.12414 32.081416 248.70728 30.710648 247.73533 30.256154 C 246.76339 29.801672 245.34025 29.284521 244.57322 29.107716 C 243.80618 28.930926 242.46813 28.752234 241.60056 28.709279 z " />
    <path
       id="rect1835"
       style="font-variation-settings:normal;display:inline;opacity:1;fill:#ffffff;fill-opacity:1;stroke:#ffffff;stroke-width:0;stroke-linecap:butt;stroke-linejoin:miter;stroke-miterlimit:4;stroke-dasharray:none;stroke-dashoffset:0;stroke-opacity:1;stop-color:#000000;stop-opacity:1"
       d="M 164.22956,53.076858 V 77.986331 H 100.19534 V 66.484886 H 66.070519 v 92.899184 c 2e-6,8.59184 6.96461,15.5569 15.556449,15.5569 h 82.602592 v 64.18281 h 34.12482 v -64.18281 h 82.60259 c 8.59184,0 15.55646,-6.96487 15.55646,-15.55671 V 66.484886 H 262.38861 V 77.986331 H 198.35438 V 53.076858 Z m -64.03422,59.034292 h 64.03422 v 28.705 h -64.03422 z m 98.15904,0 h 64.03423 v 28.705 h -64.03423 z" />
    <path
       id="path3792"
       style="font-variation-settings:normal;display:inline;opacity:1;fill:#fabe00;fill-opacity:1;stroke:#ffffff;stroke-width:0;stroke-linecap:butt;stroke-linejoin:miter;stroke-miterlimit:4;stroke-dasharray:none;stroke-dashoffset:0;stroke-opacity:1;stop-color:#000000;stop-opacity:1"
       d="m 169.04587,57.894826 0.002,24.908203 H 95.377905 v -11.5 c -8.163185,0 -16.327049,2e-6 -24.490234,0 v 88.082031 c 3.97e-4,5.93119 4.809047,10.73896 10.740234,10.73828 h 87.419925 v 64.1836 h 24.48828 v -64.1836 l 87.42192,-8e-5 c 5.92913,-9.2e-4 10.73541,-4.80912 10.73633,-10.73825 V 71.303029 H 267.20603 V 82.804982 H 193.53611 V 57.894826 Z M 95.377905,107.29326 h 73.669925 v 38.33985 H 95.377905 Z m 98.158205,0 h 73.66992 v 38.33985 h -73.66992 z" />
  </g>
</svg>
